Simulation
nRows=49
nColumns=15
endheader
time  TH_x TH_y TH_z SC_y  SC_z  SC_x  AC_y  AC_z  AC_x  GH_y  GH_z  GH_yy  EL_x  PS_y
1.55  0.000000  0.000000  0.000000  -32.62451977087467  5.513690008525143  21.650677235874447  48.656061999036595  9.130058451394865  -0.4635732424068454  23.411737580906156  55.97778174359161  -13.41007426037351  17.930068269751306  0.000000
1.581  0.000000  0.000000  0.000000  -32.92997667665519  5.758069849387138  22.327002480623854  48.511532410568755  9.140099803959096  -0.3471087001238459  23.453512878263275  56.50896128403783  -13.526468563515792  17.90552821238377  0.000000
1.612  0.000000  0.000000  0.000000  -33.20335543320433  5.958326622518657  22.92530215689985  48.40371375825335  9.136013157865639  -0.24062411202075276  23.461311669930733  56.97663524379761  -13.584714541019467  17.888005639637363  0.000000
1.643  0.000000  0.000000  0.000000  -33.4440369400676  6.109571678710819  23.437124116519602  48.33003129467532  9.127343710614785  -0.15017405141301854  23.434589725362656  57.39464748130515  -13.616135011707572  17.89175905115277  0.000000
1.674  0.000000  0.000000  0.000000  -33.65409013069466  6.214965555697659  23.86451036600297  48.29062502504114  9.119805581770546  -0.07986332155942946  23.396313135728562  57.7172383167206  -13.627839068715845  17.908084007018427  0.000000
1.705  0.000000  0.000000  0.000000  -33.85080204744215  6.282830722258908  24.22006307804814  48.27622908375832  9.118024128281563  -0.02590633864484576  23.372741929367056  57.935024654151  -13.643100956378523  17.938733760868086  0.000000
1.736  0.000000  0.000000  0.000000  -34.031265629506805  6.326450584904872  24.496515679350566  48.28233131083519  9.112009025515283  0.01285262581057795  23.382096593916632  58.01963364722003  -13.648596192604003  17.96954071447086  0.000000
1.767  0.000000  0.000000  0.000000  -34.1935364867896  6.355851621882658  24.694029760905508  48.29942529852892  9.102729291537692  0.034211119083527926  23.430532800741993  57.97916567489061  -13.657253569581368  18.004382552534263  0.000000
1.798  0.000000  0.000000  0.000000  -34.31974035630116  6.368164474056996  24.790859199631335  48.339037867293044  9.06834841738913  0.03674544626217943  23.50164944177962  57.81994056897815  -13.646653085707511  18.030815550021945  0.000000
1.829  0.000000  0.000000  0.000000  -34.394680250705655  6.37293675410358  24.771489461977357  48.397194850756634  9.011138715054226  0.012695822234071275  23.582428971559473  57.56961669818057  -13.646973581134402  18.05490870840298  0.000000
1.8599999999999999  0.000000  0.000000  0.000000  -34.40764170073407  6.353093696769616  24.62424912753009  48.483736288367325  8.928865688112893  -0.019918661225856355  23.65381115649931  57.214220531156165  -13.636929067894352  18.069238623366832  0.000000
1.891  0.000000  0.000000  0.000000  -34.35851111424546  6.307012439580051  24.34800473748795  48.61025137970745  8.831767871915336  -0.07742664614854071  23.7128231752768  56.77841441294315  -13.69356682667805  18.075524441879963  0.000000
1.922  0.000000  0.000000  0.000000  -34.25125245649197  6.212758288697529  23.956066202118112  48.771754309456995  8.735080754022828  -0.1222911916387655  23.74868330428447  56.211779296021106  -13.782975364510603  18.078165252162357  0.000000
1.953  0.000000  0.000000  0.000000  -34.09428062565176  6.069426109106909  23.448680732075935  48.991375534361616  8.64811840188001  -0.1824710610468544  23.760488495465403  55.55184340217631  -13.968839900181115  18.06901849029369  0.000000
1.984  0.000000  0.000000  0.000000  -33.898705987622925  5.877965539762136  22.843430362262726  49.23040376799483  8.562324476747328  -0.21599168497787907  23.744482306030317  54.754349029559265  -14.176999651337653  18.077700533794975  0.000000
2.015  0.000000  0.000000  0.000000  -33.67688157946205  5.656368623342902  22.117424122854537  49.516823215511245  8.475291439561873  -0.252950626288744  23.691852333932978  53.888507156239235  -14.39426070187603  18.08522483234095  0.000000
2.046  0.000000  0.000000  0.000000  -33.438838014009505  5.4077343495891546  21.293439337252263  49.78857394351402  8.381229480769136  -0.23876742089437372  23.5979225596723  52.89776798163953  -14.539656368983804  18.141135482379884  0.000000
2.077  0.000000  0.000000  0.000000  -33.19311948699194  5.155743195680521  20.328678561815096  50.08288829065617  8.271601177038002  -0.20682663462742532  23.462414364052538  51.886018364736735  -14.613947976734856  18.199245905578035  0.000000
2.108  0.000000  0.000000  0.000000  -32.9584931112207  4.895162579586186  19.262038622534487  50.352870001227785  8.162637483943831  -0.06930871787427521  23.258009319948503  50.764521287787495  -14.557869663531886  18.31107534699851  0.000000
2.139  0.000000  0.000000  0.000000  -32.74315046475487  4.655267025636648  18.02552861595081  50.6469173948518  8.039925666644432  0.14219140665842353  23.01740381139308  49.68904727421345  -14.431769535671078  18.401022585443542  0.000000
2.17  0.000000  0.000000  0.000000  -32.5597937519107  4.453102377142687  16.671489288038842  50.903786847381696  7.936655958752406  0.5471331683637705  22.707194901126243  48.54391447159939  -14.16748425706011  18.55520711777799  0.000000
2.201  0.000000  0.000000  0.000000  -32.32573841092357  4.262157532948764  15.096829450002339  51.17672005440421  7.884132618816334  1.0712976092657773  22.37429665224003  47.58001124282522  -13.925708510643965  18.628726951642438  0.000000
2.232  0.000000  0.000000  0.000000  -32.07095362065893  4.5651024945127014  13.203526085173939  51.23570875313219  7.583526561463012  2.20564757340144  22.069395596961698  46.81330821581353  -13.816144117529157  18.648973124636964  0.000000
2.263  0.000000  0.000000  0.000000  -31.741331299442844  5.6787675522399015  11.113717464098654  51.123266509121336  6.920077933527915  3.8667423446772493  21.322616912637216  45.997730187648905  -12.976057440427022  19.28695977767192  0.000000
2.294  0.000000  0.000000  0.000000  -31.22549589620924  6.441107305774302  9.027720813063148  52.07028376210053  6.905099049765559  5.998377914363579  18.88420283170109  44.36397465344074  -11.446193702990145  19.27061707858357  0.000000
2.325  0.000000  0.000000  0.000000  -31.85193971564084  5.795556940547102  6.162561787187752  53.673437287617894  7.81396460940489  8.975472861131143  15.671743308090686  43.30201420895295  -9.0406350477815  19.444170687854474  0.000000
2.356  0.000000  0.000000  0.000000  -34.88606001801536  5.235284762523135  1.491319877227047  56.79917249244257  8.98795142787503  12.14626065717434  14.202192482907341  45.00164318044817  -7.110007363799384  19.287747887742903  0.000000
2.387  0.000000  0.000000  0.000000  -34.282185622061895  9.019669329315326  -1.8412080940837119  59.73615212252761  11.604862509388884  20.36795580396779  2.902384664582324  42.11070075901086  -0.6819532958397619  19.42734185272063  0.000000
2.418  0.000000  0.000000  0.000000  -22.51714113487422  17.47950471355101  -2.963401272660671  56.16912604081213  17.623754798459572  27.56685960551105  -25.935271209577465  31.642214925721266  17.463260342294127  17.65887951642876  0.000000
2.449  0.000000  0.000000  0.000000  -15.911490488619657  9.951562994724716  3.6085647113406  39.49946265764474  26.809544060250072  32.29856578080175  -52.70943116552018  27.419502941379687  40.71167427718255  17.037153658384312  0.000000
2.48  0.000000  0.000000  0.000000  -26.98885422534569  -2.6645496610179795  7.1940577193751665  54.20450551657115  26.53870247779794  20.411348744766567  -41.931270403235985  34.69578563854782  30.63618211439377  18.113494740297476  0.000000
2.511  0.000000  0.000000  0.000000  -36.55990131039322  20.885405042243615  -5.554583225976985  84.38402784323138  12.897513895201193  30.890680697359365  -29.29598866109804  47.66503124459304  18.59189771950158  13.253633165666946  0.000000
2.542  0.000000  0.000000  0.000000  -7.9742352109207655  36.05286966966382  -54.161319777548094  54.70925851762987  10.303491124671822  75.83377399300238  -20.94367873862151  44.591752134635485  19.3237416237516  16.125877661603777  0.000000
2.573  0.000000  0.000000  0.000000  1.7102880212730451  15.404337247563502  -97.7500815658908  20.48364375043677  6.131543041684618  100.55493301726078  1.0574366224835383  39.964879091717194  8.62404997200965  19.32300230740668  0.000000
2.604  0.000000  0.000000  0.000000  -4.212323193337902  21.554618996932767  -119.47139215637323  23.97549844539559  20.19318887192507  114.91799758104911  7.9769914387222185  42.256455920278135  12.824551479390717  18.2058067322189  0.000000
2.635  0.000000  0.000000  0.000000  -10.961720387135967  35.530692806072345  -111.33342368008108  34.17545886399996  34.93593234459259  120.8527180725653  -12.17103903025144  39.85582494425882  31.944074296416378  17.564560073558965  0.000000
2.666  0.000000  0.000000  0.000000  -8.805051840353226  32.02451664347687  -102.73147697241109  25.78634596856797  39.16178943513723  122.9837641119577  -26.59242381345534  38.83360489092801  37.859328163801806  17.370020085761038  0.000000
2.697  0.000000  0.000000  0.000000  -5.3091800214495315  27.828072326648385  -114.19598988371854  19.514045677870975  38.3941416468853  132.52771585603037  -16.903894036336137  36.63784248245042  30.988488968424655  20.089902017223938  0.000000
2.7279999999999998  0.000000  0.000000  0.000000  -6.319795525648543  28.786928806842088  -122.96566397291053  19.135218598536536  36.86714478119834  133.59725415752817  0.4897901304816375  34.8859996021296  19.876408036796875  20.289206454466132  0.000000
2.759  0.000000  0.000000  0.000000  -7.093079722037004  30.253674582136686  -128.76824271417732  18.05335037941223  38.48580913203482  139.09318234413152  5.792069797566133  33.40428196342755  16.984751039651975  19.842539547473496  0.000000
2.79  0.000000  0.000000  0.000000  -6.93384926655985  28.29870336870285  -130.69990221537924  13.29874722961286  37.58753234424987  142.2136333290965  4.931142384779409  32.21650379764893  17.547879313373567  19.81262802687549  0.000000
2.821  0.000000  0.000000  0.000000  -5.969834345810841  28.702124567284695  -134.97128956315757  12.5247130902331  39.051808875623756  146.3494121071412  4.733805585843389  31.51865042062423  18.44022449024982  19.970085180558165  0.000000
2.852  0.000000  0.000000  0.000000  -6.281116691211076  27.914727119532596  -136.19391213687302  10.608287605049334  37.77068801297302  147.18279275341266  4.564759262824981  30.049510265412152  19.50717825076797  19.915571541291445  0.000000
2.883  0.000000  0.000000  0.000000  -6.242850686384835  28.21185179995715  -138.97270996076406  10.246315610022833  38.85498829965106  149.80375807300663  3.5575047074715425  29.215651663278365  21.39572622840939  20.208962150880364  0.000000
2.914  0.000000  0.000000  0.000000  -6.17731358919093  27.5711601902216  -139.59044913255346  9.12894827611238  37.50912801761841  149.80260307051404  1.8605638510461988  28.26102600735314  23.882216170808036  20.195462460291235  0.000000
2.945  0.000000  0.000000  0.000000  -6.329321352757977  27.86148487617553  -141.29723353219657  9.290431698807344  38.512922145899516  151.42598669998898  -0.08607484140844443  27.758774095177344  26.86050986828544  20.512900192040615  0.000000
2.976  0.000000  0.000000  0.000000  -6.208893417356825  27.329817459134066  -141.29957676040223  8.927835568525099  37.11486268971466  150.38133842138336  -1.2280426152822483  27.188505628376557  29.15216538210386  20.651754394514395  0.000000
3.007  0.000000  0.000000  0.000000  -6.524577482546026  27.589109741918943  -142.21856650840337  9.805199558895302  37.93323602325539  150.98250828802549  -1.7462132147939757  26.685081136984945  31.33130653098615  21.126577812706504  0.000000
3.038  0.000000  0.000000  0.000000  -6.616177061585457  27.310865467189057  -141.50392525488826  10.089286518028691  36.71681109561787  148.9410459135622  -0.23291706991746333  25.544379983379052  31.66218638845596  21.57087650166693  0.000000
